<svg width="257" height="193" viewBox="0 0 257 193" fill="none" xmlns="http://www.w3.org/2000/svg">
<path d="M28.5959 182.416C25.4599 182.416 22.5799 181.952 19.9559 181.024C17.3639 180.096 15.2679 178.736 13.6679 176.944C12.0679 175.12 11.1879 172.88 11.0279 170.224C10.9639 169.136 11.1399 167.936 11.5559 166.624C11.9719 165.312 12.5479 164.016 13.2839 162.736C14.0519 161.424 14.9479 160.256 15.9719 159.232C17.0279 158.176 18.1479 157.376 19.3319 156.832C19.4279 156.768 19.5719 156.72 19.7639 156.688C19.9879 156.656 20.1479 156.64 20.2439 156.64C20.4359 156.64 20.5319 156.688 20.5319 156.784C20.5319 156.944 20.2919 157.2 19.8119 157.552C18.4679 158.608 17.3639 159.824 16.4999 161.2C15.6039 162.576 14.9319 164.048 14.4839 165.616C14.0359 167.184 13.8119 168.768 13.8119 170.368C13.8119 172.256 14.2119 173.888 15.0119 175.264C15.8439 176.608 16.9479 177.712 18.3239 178.576C19.6999 179.472 21.2679 180.128 23.0279 180.544C24.7879 180.96 26.6279 181.168 28.5479 181.168C30.6919 181.168 32.8039 180.928 34.8839 180.448C36.9959 179.968 38.9159 179.28 40.6439 178.384C43.2999 176.976 45.3959 175.232 46.9319 173.152C48.4999 171.072 49.2839 169.008 49.2839 166.96C49.2839 165.872 49.0439 164.832 48.5639 163.84C48.1159 162.848 47.3799 161.952 46.3559 161.152C45.5879 160.544 44.6439 159.968 43.5239 159.424C42.4359 158.88 41.2679 158.352 40.0199 157.84C38.8039 157.328 37.6039 156.816 36.4199 156.304C35.2359 155.76 34.1959 155.184 33.2999 154.576C32.0199 153.712 31.0759 152.784 30.4679 151.792C29.8919 150.8 29.6039 149.808 29.6039 148.816C29.6039 147.632 29.9399 146.48 30.6119 145.36C31.3159 144.24 32.2599 143.232 33.4439 142.336C34.6599 141.408 36.0199 140.688 37.5239 140.176C38.8359 139.728 40.2599 139.376 41.7959 139.12C43.3639 138.864 44.8999 138.736 46.4039 138.736C47.6519 138.736 48.8359 138.832 49.9559 139.024C51.1079 139.184 52.1159 139.488 52.9799 139.936C54.0679 140.448 54.8999 141.136 55.4759 142C56.0519 142.832 56.3399 143.712 56.3399 144.64C56.3399 145.92 55.7639 147.04 54.6119 148C54.1959 148.32 53.7319 148.624 53.2199 148.912C52.7079 149.168 52.0999 149.392 51.3959 149.584C51.2679 149.616 51.1239 149.632 50.9639 149.632C50.5799 149.632 50.3879 149.52 50.3879 149.296C50.3879 149.168 50.4839 149.04 50.6759 148.912C50.8999 148.752 51.2199 148.656 51.6359 148.624C52.5959 148.496 53.3159 148.128 53.7959 147.52C54.3079 146.912 54.5639 146.208 54.5639 145.408C54.5639 144.576 54.2759 143.76 53.6999 142.96C53.1559 142.128 52.3079 141.44 51.1559 140.896C50.0039 140.32 48.5319 140.032 46.7399 140.032C45.7159 140.032 44.5799 140.144 43.3319 140.368C42.1159 140.592 40.7879 140.96 39.3479 141.472C37.5879 142.08 36.1159 142.976 34.9319 144.16C33.7799 145.344 33.2039 146.608 33.2039 147.952C33.2039 148.784 33.4759 149.632 34.0199 150.496C34.5959 151.328 35.5079 152.128 36.7559 152.896C37.8119 153.536 39.0119 154.176 40.3559 154.816C41.6999 155.424 43.0599 156.048 44.4359 156.688C45.8119 157.296 47.0599 157.952 48.1799 158.656C49.9399 159.744 51.2039 160.912 51.9719 162.16C52.7399 163.408 53.1239 164.688 53.1239 166C53.1239 167.536 52.6599 169.088 51.7319 170.656C50.8359 172.192 49.6519 173.648 48.1799 175.024C46.7079 176.368 45.0919 177.568 43.3319 178.624C41.2839 179.84 38.9639 180.768 36.3719 181.408C33.8119 182.08 31.2199 182.416 28.5959 182.416ZM67.7279 178.144C67.3759 178.176 66.9759 178.096 66.5279 177.904C66.0799 177.712 65.6799 177.36 65.3279 176.848C65.0079 176.336 64.8479 175.616 64.8479 174.688C64.8479 173.92 64.9919 172.992 65.2799 171.904C64.8959 172.512 64.3999 173.264 63.7919 174.16C63.1839 175.024 62.5279 175.792 61.8239 176.464C61.2159 177.04 60.6399 177.456 60.0959 177.712C59.5519 177.968 59.0559 178.096 58.6079 178.096C57.7759 178.096 57.1039 177.728 56.5919 176.992C56.0799 176.224 55.8239 175.232 55.8239 174.016C55.8239 172.736 56.1439 171.28 56.7839 169.648C57.4239 168.016 58.4639 166.32 59.9039 164.56C60.8319 163.44 61.9519 162.544 63.2639 161.872C64.6079 161.168 65.9199 160.816 67.1999 160.816C67.9359 160.816 68.6399 160.944 69.3119 161.2C69.9839 161.424 70.5759 161.808 71.0879 162.352C71.3119 162.576 71.4239 162.832 71.4239 163.12C71.4239 163.312 71.3439 163.472 71.1839 163.6C71.0239 163.728 70.8159 163.76 70.5599 163.696C70.2079 162.576 69.4559 162.016 68.3039 162.016C67.7599 162.016 67.1359 162.192 66.4319 162.544C65.3439 163.12 64.2079 164.064 63.0239 165.376C61.8719 166.688 60.8639 168.048 59.9999 169.456C59.8719 169.648 59.6639 170.016 59.3759 170.56C59.1199 171.104 58.8639 171.712 58.6079 172.384C58.3519 173.056 58.1759 173.712 58.0799 174.352C58.0479 174.544 58.0319 174.688 58.0319 174.784C58.0319 174.848 58.0319 174.96 58.0319 175.12C58.0319 176.176 58.4319 176.704 59.2319 176.704C60.1919 176.704 61.2799 176 62.4959 174.592C63.3279 173.568 64.0799 172.496 64.7519 171.376C65.4239 170.256 66.1119 169.056 66.8159 167.776C67.2959 166.912 67.7439 166.192 68.1599 165.616C68.5759 165.04 69.1679 164.752 69.9359 164.752C70.2879 164.752 70.6399 164.8 70.9919 164.896C71.3439 164.992 71.7119 165.008 72.0959 164.944C71.8399 165.2 71.4879 165.68 71.0399 166.384C70.6239 167.088 70.1759 167.888 69.6959 168.784C69.2159 169.68 68.7839 170.592 68.3999 171.52C68.0159 172.448 67.7439 173.248 67.5839 173.92C67.5519 174.112 67.5039 174.384 67.4399 174.736C67.4079 175.088 67.3919 175.344 67.3919 175.504C67.3919 176.4 67.6479 176.848 68.1599 176.848C68.6719 176.848 69.2159 176.544 69.7919 175.936C70.3999 175.328 70.9919 174.576 71.5679 173.68C72.1439 172.784 72.6719 171.888 73.1519 170.992C73.6319 170.064 74.0159 169.312 74.3039 168.736C74.4319 168.416 74.6239 168.256 74.8799 168.256C75.0399 168.256 75.1199 168.368 75.1199 168.592C75.1199 168.688 75.0719 168.864 74.9759 169.12C74.5919 169.92 74.1279 170.832 73.5839 171.856C73.0399 172.848 72.4479 173.824 71.8079 174.784C71.1679 175.712 70.4959 176.496 69.7919 177.136C69.1199 177.744 68.4319 178.08 67.7279 178.144ZM76.6349 178.144C75.2909 178.144 74.3789 177.792 73.8989 177.088C73.4189 176.352 73.1789 175.488 73.1789 174.496C73.1789 173.472 73.3229 172.416 73.6109 171.328C73.8989 170.24 74.1549 169.328 74.3789 168.592C74.8909 166.8 75.5309 164.896 76.2989 162.88C77.0989 160.832 77.9629 158.832 78.8909 156.88C79.8509 154.896 80.7949 153.12 81.7229 151.552C82.4589 150.304 83.2429 149.376 84.0749 148.768C84.9389 148.128 85.6909 147.808 86.3309 147.808C86.8429 147.808 87.2429 148 87.5309 148.384C87.8509 148.736 88.0109 149.28 88.0109 150.016C88.0109 150.528 87.9149 151.136 87.7229 151.84C87.5629 152.544 87.2749 153.344 86.8589 154.24C85.7389 156.736 84.3949 159.232 82.8269 161.728C81.2909 164.224 79.3389 166.56 76.9709 168.736C76.8429 169.152 76.6669 169.648 76.4429 170.224C76.2509 170.768 76.0749 171.328 75.9149 171.904C75.7229 172.768 75.6269 173.504 75.6269 174.112C75.6269 175.104 75.8189 175.856 76.2029 176.368C76.6189 176.848 77.1149 177.088 77.6909 177.088C78.2029 177.088 78.7469 176.912 79.3229 176.56C79.8989 176.176 80.4429 175.632 80.9549 174.928C81.7229 173.808 82.4109 172.672 83.0189 171.52C83.6589 170.336 84.1389 169.424 84.4589 168.784C84.6509 168.432 84.8589 168.256 85.0829 168.256C85.2429 168.256 85.3229 168.352 85.3229 168.544C85.3229 168.704 85.2749 168.88 85.1789 169.072C84.8909 169.712 84.5069 170.544 84.0269 171.568C83.5789 172.56 83.0029 173.568 82.2989 174.592C81.6269 175.584 80.8109 176.432 79.8509 177.136C78.9229 177.808 77.8509 178.144 76.6349 178.144ZM77.3549 167.2C78.5069 166.016 79.6269 164.656 80.7149 163.12C81.8029 161.552 82.8109 159.936 83.7389 158.272C84.6989 156.576 85.4989 154.976 86.1389 153.472C86.3629 152.992 86.5389 152.464 86.6669 151.888C86.8269 151.312 86.9069 150.832 86.9069 150.448C86.9069 150 86.7949 149.776 86.5709 149.776C86.4429 149.776 86.2509 149.904 85.9949 150.16C85.7389 150.384 85.4029 150.784 84.9869 151.36C84.3789 152.16 83.7069 153.248 82.9709 154.624C82.2669 156 81.5469 157.472 80.8109 159.04C80.0749 160.608 79.4029 162.128 78.7949 163.6C78.1869 165.04 77.7069 166.24 77.3549 167.2ZM94.8216 178.144C94.4696 178.176 94.0696 178.096 93.6216 177.904C93.1736 177.712 92.7736 177.36 92.4216 176.848C92.1016 176.336 91.9416 175.616 91.9416 174.688C91.9416 173.92 92.0856 172.992 92.3736 171.904C91.9896 172.512 91.4936 173.264 90.8856 174.16C90.2776 175.024 89.6216 175.792 88.9176 176.464C88.3096 177.04 87.7336 177.456 87.1896 177.712C86.6456 177.968 86.1496 178.096 85.7016 178.096C84.8696 178.096 84.1976 177.728 83.6856 176.992C83.1736 176.224 82.9176 175.232 82.9176 174.016C82.9176 172.736 83.2376 171.28 83.8776 169.648C84.5176 168.016 85.5576 166.32 86.9976 164.56C87.9256 163.44 89.0456 162.544 90.3576 161.872C91.7016 161.168 93.0136 160.816 94.2936 160.816C95.0296 160.816 95.7336 160.944 96.4056 161.2C97.0776 161.424 97.6696 161.808 98.1816 162.352C98.4056 162.576 98.5176 162.832 98.5176 163.12C98.5176 163.312 98.4376 163.472 98.2776 163.6C98.1176 163.728 97.9096 163.76 97.6536 163.696C97.3016 162.576 96.5496 162.016 95.3976 162.016C94.8536 162.016 94.2296 162.192 93.5256 162.544C92.4376 163.12 91.3016 164.064 90.1176 165.376C88.9656 166.688 87.9576 168.048 87.0936 169.456C86.9656 169.648 86.7576 170.016 86.4696 170.56C86.2136 171.104 85.9576 171.712 85.7016 172.384C85.4456 173.056 85.2696 173.712 85.1736 174.352C85.1416 174.544 85.1256 174.688 85.1256 174.784C85.1256 174.848 85.1256 174.96 85.1256 175.12C85.1256 176.176 85.5256 176.704 86.3256 176.704C87.2856 176.704 88.3736 176 89.5896 174.592C90.4216 173.568 91.1736 172.496 91.8456 171.376C92.5176 170.256 93.2056 169.056 93.9096 167.776C94.3896 166.912 94.8376 166.192 95.2536 165.616C95.6696 165.04 96.2616 164.752 97.0296 164.752C97.3816 164.752 97.7336 164.8 98.0856 164.896C98.4376 164.992 98.8056 165.008 99.1896 164.944C98.9336 165.2 98.5816 165.68 98.1336 166.384C97.7176 167.088 97.2696 167.888 96.7896 168.784C96.3096 169.68 95.8776 170.592 95.4936 171.52C95.1096 172.448 94.8376 173.248 94.6776 173.92C94.6456 174.112 94.5976 174.384 94.5336 174.736C94.5016 175.088 94.4856 175.344 94.4856 175.504C94.4856 176.4 94.7416 176.848 95.2536 176.848C95.7656 176.848 96.3096 176.544 96.8856 175.936C97.4936 175.328 98.0856 174.576 98.6616 173.68C99.2376 172.784 99.7656 171.888 100.246 170.992C100.726 170.064 101.11 169.312 101.398 168.736C101.526 168.416 101.718 168.256 101.974 168.256C102.134 168.256 102.214 168.368 102.214 168.592C102.214 168.688 102.166 168.864 102.07 169.12C101.686 169.92 101.222 170.832 100.678 171.856C100.134 172.848 99.5416 173.824 98.9016 174.784C98.2616 175.712 97.5896 176.496 96.8856 177.136C96.2136 177.744 95.5256 178.08 94.8216 178.144ZM103.51 154.144C103.126 154.944 102.566 155.76 101.83 156.592C101.126 157.392 100.262 157.792 99.2376 157.792C98.5336 157.792 97.8456 157.648 97.1736 157.36C96.5336 157.04 95.8936 156.736 95.2536 156.448C94.6136 156.16 93.9576 156.016 93.2856 156.016C92.7736 156.016 92.3256 156.16 91.9416 156.448C91.5896 156.736 91.3016 157.088 91.0776 157.504C91.0456 157.6 90.9016 157.648 90.6456 157.648C90.4856 157.648 90.3256 157.632 90.1656 157.6C90.0376 157.536 89.9896 157.472 90.0216 157.408C90.4376 156.672 90.9976 155.92 91.7016 155.152C92.4056 154.384 93.2536 154 94.2456 154C94.9816 154 95.6856 154.144 96.3576 154.432C97.0296 154.72 97.6856 155.008 98.3256 155.296C98.9976 155.552 99.6696 155.68 100.342 155.68C100.886 155.68 101.334 155.536 101.686 155.248C102.038 154.928 102.326 154.528 102.55 154.048C102.614 153.952 102.742 153.904 102.934 153.904C103.094 153.904 103.238 153.936 103.366 154C103.494 154.032 103.542 154.08 103.51 154.144ZM103.633 178C102.417 178 101.521 177.6 100.945 176.8C100.369 175.968 100.081 174.96 100.081 173.776C100.081 172.336 100.417 170.832 101.089 169.264C101.729 167.792 102.545 166.448 103.537 165.232C104.529 164.016 105.601 163.04 106.753 162.304C107.905 161.536 109.025 161.152 110.113 161.152C111.329 161.152 112.225 161.552 112.801 162.352C113.377 163.152 113.665 164.16 113.665 165.376C113.665 166.848 113.329 168.352 112.657 169.888C112.273 170.752 111.729 171.712 111.025 172.768C110.321 173.792 109.521 174.736 108.625 175.6C108.817 175.952 109.089 176.256 109.441 176.512C109.793 176.736 110.273 176.848 110.881 176.848C111.649 176.848 112.369 176.528 113.041 175.888C113.745 175.248 114.385 174.48 114.961 173.584C115.537 172.656 116.049 171.728 116.497 170.8C116.945 169.872 117.313 169.12 117.601 168.544C117.697 168.352 117.857 168.256 118.081 168.256C118.209 168.256 118.305 168.32 118.369 168.448C118.433 168.544 118.417 168.704 118.321 168.928C118.129 169.408 117.809 170.128 117.361 171.088C116.913 172.016 116.369 172.992 115.729 174.016C115.089 175.008 114.353 175.856 113.521 176.56C112.689 177.264 111.761 177.616 110.737 177.616C110.033 177.616 109.425 177.504 108.913 177.28C108.401 177.024 107.985 176.72 107.665 176.368C106.993 176.88 106.321 177.28 105.649 177.568C104.977 177.856 104.305 178 103.633 178ZM104.353 176.944C105.217 176.944 106.145 176.528 107.137 175.696C106.881 175.312 106.689 174.912 106.561 174.496C106.433 174.08 106.369 173.696 106.369 173.344C106.369 172.768 106.497 172.272 106.753 171.856C107.041 171.44 107.473 171.232 108.049 171.232C108.465 171.232 108.801 171.392 109.057 171.712C109.345 172 109.489 172.336 109.489 172.72C109.489 172.816 109.473 172.912 109.441 173.008C109.441 173.072 109.425 173.152 109.393 173.248C109.937 172.512 110.449 171.648 110.929 170.656C111.985 168.384 112.513 166.512 112.513 165.04C112.513 164.304 112.369 163.728 112.081 163.312C111.793 162.896 111.361 162.688 110.785 162.688C110.113 162.688 109.377 162.976 108.577 163.552C107.809 164.128 107.057 164.896 106.321 165.856C105.617 166.816 104.993 167.888 104.449 169.072C103.937 170.16 103.521 171.216 103.201 172.24C102.913 173.232 102.769 174.096 102.769 174.832C102.769 175.472 102.897 175.984 103.153 176.368C103.409 176.752 103.809 176.944 104.353 176.944ZM140.484 178C139.62 178 138.9 177.568 138.324 176.704C138.164 176.448 138.02 176.112 137.892 175.696C137.764 175.28 137.7 174.816 137.7 174.304C137.7 174.016 137.716 173.728 137.748 173.44C137.78 173.12 137.844 172.8 137.94 172.48C137.492 173.184 136.964 173.968 136.356 174.832C135.78 175.664 135.108 176.4 134.34 177.04C133.604 177.648 132.772 177.952 131.844 177.952C131.524 177.952 131.188 177.904 130.836 177.808C129.972 177.552 129.348 177.104 128.964 176.464C128.612 175.824 128.436 175.056 128.436 174.16C128.436 173.168 128.628 172.08 129.012 170.896C129.428 169.712 129.94 168.56 130.548 167.44C131.188 166.32 131.844 165.36 132.516 164.56C133.476 163.44 134.58 162.544 135.828 161.872C137.076 161.2 138.34 160.864 139.62 160.864C140.772 160.864 141.86 161.168 142.884 161.776C143.364 160.88 143.876 159.888 144.42 158.8C144.964 157.68 145.508 156.576 146.052 155.488C146.596 154.4 147.076 153.408 147.492 152.512C147.908 151.584 148.228 150.88 148.452 150.4C148.932 149.28 149.38 148.576 149.796 148.288C150.244 147.968 150.772 147.808 151.38 147.808C151.732 147.808 152.116 147.856 152.531 147.952C152.98 148.016 153.412 148.032 153.828 148C153.636 148.192 153.236 148.752 152.628 149.68C152.052 150.576 151.364 151.728 150.564 153.136C149.764 154.544 148.9 156.096 147.972 157.792C147.076 159.456 146.18 161.152 145.284 162.88C144.42 164.576 143.604 166.192 142.836 167.728C142.1 169.232 141.508 170.528 141.06 171.616C140.932 171.872 140.74 172.4 140.484 173.2C140.26 173.968 140.148 174.64 140.148 175.216C140.148 175.632 140.244 176 140.436 176.32C140.628 176.608 140.948 176.752 141.396 176.752C142.004 176.752 142.612 176.448 143.22 175.84C143.86 175.2 144.468 174.432 145.044 173.536C145.62 172.608 146.132 171.712 146.58 170.848C147.028 169.952 147.364 169.248 147.588 168.736C147.748 168.384 147.94 168.208 148.164 168.208C148.356 168.208 148.452 168.352 148.452 168.64C148.452 168.672 148.452 168.736 148.452 168.832C148.452 168.896 148.42 168.976 148.356 169.072C148.068 169.744 147.668 170.576 147.156 171.568C146.676 172.56 146.1 173.552 145.428 174.544C144.756 175.536 144.004 176.368 143.172 177.04C142.34 177.68 141.444 178 140.484 178ZM132.18 176.56C132.628 176.56 133.188 176.32 133.86 175.84C134.532 175.328 135.252 174.528 136.02 173.44C136.916 172.16 137.94 170.56 139.092 168.64C140.244 166.72 141.38 164.688 142.5 162.544C142.084 162.16 141.604 161.968 141.06 161.968C140.164 161.968 139.156 162.384 138.036 163.216C136.948 164.048 135.876 165.104 134.82 166.384C133.796 167.664 132.932 168.96 132.228 170.272C131.748 171.168 131.396 171.984 131.172 172.72C130.98 173.456 130.884 174.096 130.884 174.64C130.884 175.92 131.316 176.56 132.18 176.56ZM157.962 178.144C157.61 178.176 157.21 178.096 156.762 177.904C156.314 177.712 155.914 177.36 155.562 176.848C155.242 176.336 155.082 175.616 155.082 174.688C155.082 173.92 155.226 172.992 155.514 171.904C155.13 172.512 154.634 173.264 154.026 174.16C153.418 175.024 152.762 175.792 152.058 176.464C151.45 177.04 150.874 177.456 150.33 177.712C149.786 177.968 149.29 178.096 148.842 178.096C148.01 178.096 147.338 177.728 146.826 176.992C146.314 176.224 146.058 175.232 146.058 174.016C146.058 172.736 146.378 171.28 147.018 169.648C147.658 168.016 148.698 166.32 150.138 164.56C151.066 163.44 152.186 162.544 153.498 161.872C154.842 161.168 156.154 160.816 157.434 160.816C158.17 160.816 158.874 160.944 159.546 161.2C160.218 161.424 160.81 161.808 161.322 162.352C161.546 162.576 161.658 162.832 161.658 163.12C161.658 163.312 161.578 163.472 161.418 163.6C161.258 163.728 161.05 163.76 160.794 163.696C160.442 162.576 159.69 162.016 158.538 162.016C157.994 162.016 157.37 162.192 156.666 162.544C155.578 163.12 154.442 164.064 153.258 165.376C152.106 166.688 151.098 168.048 150.234 169.456C150.106 169.648 149.898 170.016 149.61 170.56C149.354 171.104 149.098 171.712 148.842 172.384C148.586 173.056 148.41 173.712 148.314 174.352C148.282 174.544 148.266 174.688 148.266 174.784C148.266 174.848 148.266 174.96 148.266 175.12C148.266 176.176 148.666 176.704 149.466 176.704C150.426 176.704 151.514 176 152.73 174.592C153.562 173.568 154.314 172.496 154.986 171.376C155.658 170.256 156.346 169.056 157.05 167.776C157.53 166.912 157.978 166.192 158.394 165.616C158.81 165.04 159.402 164.752 160.17 164.752C160.522 164.752 160.874 164.8 161.226 164.896C161.578 164.992 161.946 165.008 162.33 164.944C162.074 165.2 161.722 165.68 161.274 166.384C160.858 167.088 160.41 167.888 159.93 168.784C159.45 169.68 159.018 170.592 158.634 171.52C158.25 172.448 157.978 173.248 157.818 173.92C157.786 174.112 157.738 174.384 157.674 174.736C157.642 175.088 157.626 175.344 157.626 175.504C157.626 176.4 157.882 176.848 158.394 176.848C158.906 176.848 159.45 176.544 160.026 175.936C160.634 175.328 161.226 174.576 161.802 173.68C162.378 172.784 162.906 171.888 163.386 170.992C163.866 170.064 164.25 169.312 164.538 168.736C164.666 168.416 164.858 168.256 165.114 168.256C165.274 168.256 165.354 168.368 165.354 168.592C165.354 168.688 165.306 168.864 165.21 169.12C164.826 169.92 164.362 170.832 163.818 171.856C163.274 172.848 162.682 173.824 162.042 174.784C161.402 175.712 160.73 176.496 160.026 177.136C159.354 177.744 158.666 178.08 157.962 178.144ZM213.082 192.496C212.794 192.496 212.73 192.272 212.89 191.824C213.082 191.408 213.258 191.024 213.418 190.672C213.706 190.096 213.85 189.2 213.85 187.984C213.85 186.928 213.658 185.792 213.274 184.576C212.89 183.36 212.138 182.256 211.018 181.264C209.482 179.856 207.754 178.736 205.834 177.904C203.914 177.072 201.898 176.4 199.786 175.888C197.706 175.376 195.642 174.928 193.594 174.544C192.346 176.272 191.002 177.824 189.562 179.2C188.154 180.576 186.65 181.632 185.05 182.368C184.154 182.784 183.29 183.088 182.458 183.28C181.626 183.504 180.842 183.616 180.106 183.616C178.314 183.616 176.842 183.136 175.69 182.176C174.57 181.248 174.01 180.144 174.01 178.864C174.01 177.648 174.554 176.464 175.642 175.312C176.762 174.128 178.602 173.152 181.162 172.384C182.186 172.096 183.322 171.888 184.57 171.76C185.818 171.6 187.114 171.52 188.458 171.52C189.29 171.52 190.106 171.552 190.906 171.616C191.738 171.648 192.506 171.744 193.21 171.904C194.138 170.496 195.002 169.04 195.802 167.536C196.602 166 197.434 164.336 198.298 162.544C195.77 162.608 193.578 162.24 191.722 161.44C189.866 160.608 188.426 159.504 187.402 158.128C186.41 156.752 185.914 155.28 185.914 153.712C185.914 152.432 186.282 151.184 187.018 149.968C187.754 148.72 188.906 147.6 190.474 146.608C192.074 145.584 194.106 144.784 196.57 144.208C196.73 144.144 196.874 144.112 197.002 144.112C197.162 144.112 197.306 144.112 197.434 144.112C197.914 144.112 198.154 144.208 198.154 144.4C198.154 144.72 197.642 144.944 196.618 145.072C194.954 145.264 193.482 145.856 192.202 146.848C190.954 147.84 189.978 149.024 189.274 150.4C188.602 151.776 188.266 153.168 188.266 154.576C188.266 155.792 188.554 156.928 189.13 157.984C189.706 159.04 190.618 159.904 191.866 160.576C193.114 161.216 194.73 161.536 196.714 161.536C197.418 161.536 198.17 161.488 198.97 161.392C199.098 161.136 199.306 160.624 199.594 159.856C199.914 159.056 200.266 158.16 200.65 157.168C201.034 156.176 201.402 155.216 201.754 154.288C202.138 153.36 202.442 152.592 202.666 151.984C202.922 151.344 203.05 151.024 203.05 151.024C204.522 147.344 206.026 144.464 207.562 142.384C209.13 140.272 210.634 138.784 212.074 137.92C213.546 137.056 214.858 136.624 216.01 136.624C217.258 136.624 218.282 136.992 219.082 137.728C219.914 138.464 220.362 139.296 220.426 140.224C220.458 140.512 220.474 140.72 220.474 140.848C220.474 140.976 220.474 141.136 220.474 141.328C220.474 143.216 220.09 145.104 219.322 146.992C218.586 148.88 217.546 150.672 216.202 152.368C214.89 154.064 213.37 155.6 211.642 156.976C209.946 158.352 208.122 159.504 206.17 160.432C204.25 161.36 202.298 162 200.314 162.352C199.834 163.312 199.402 164.176 199.018 164.944C198.666 165.68 198.266 166.48 197.818 167.344C197.37 168.208 196.778 169.312 196.042 170.656C195.818 171.072 195.642 171.376 195.514 171.568C195.418 171.728 195.258 171.984 195.034 172.336C196.634 172.72 198.378 173.264 200.266 173.968C202.154 174.64 204.01 175.456 205.834 176.416C207.69 177.344 209.338 178.368 210.778 179.488C212.57 180.864 213.834 182.416 214.57 184.144C215.338 185.872 215.722 187.392 215.722 188.704C215.722 189.632 215.578 190.336 215.29 190.816C214.874 191.52 214.458 191.968 214.042 192.16C213.626 192.384 213.306 192.496 213.082 192.496ZM200.986 161.056C203.162 160.576 205.29 159.712 207.37 158.464C209.45 157.184 211.322 155.648 212.986 153.856C214.65 152.032 215.978 150.064 216.97 147.952C217.962 145.808 218.458 143.632 218.458 141.424C218.458 140.88 218.314 140.432 218.026 140.08C217.738 139.728 217.322 139.552 216.778 139.552C216.042 139.552 215.098 139.968 213.946 140.8C212.794 141.6 211.482 142.96 210.01 144.88C208.538 146.768 206.954 149.376 205.258 152.704C205.258 152.704 205.034 153.12 204.586 153.952C204.17 154.784 203.626 155.84 202.954 157.12C202.314 158.368 201.658 159.68 200.986 161.056ZM179.434 182.224C180.138 182.224 180.89 182.128 181.69 181.936C182.522 181.744 183.386 181.44 184.282 181.024C186.97 179.712 189.45 177.44 191.722 174.208C190.986 174.048 190.218 173.936 189.418 173.872C188.618 173.776 187.802 173.728 186.97 173.728C186.106 173.728 185.21 173.776 184.282 173.872C183.386 173.968 182.506 174.144 181.642 174.4C179.498 174.976 177.85 175.712 176.698 176.608C175.578 177.504 175.018 178.416 175.018 179.344C175.018 180.144 175.418 180.816 176.218 181.36C177.018 181.936 178.09 182.224 179.434 182.224ZM214.705 178.192C213.521 178.192 212.449 177.808 211.489 177.04C210.561 176.272 210.097 175.104 210.097 173.536C210.097 172.096 210.449 170.56 211.153 168.928C211.857 167.264 212.753 165.808 213.841 164.56C214.769 163.472 215.809 162.576 216.961 161.872C218.113 161.168 219.201 160.816 220.225 160.816C220.929 160.816 221.537 161.008 222.049 161.392C222.593 161.808 222.865 162.4 222.865 163.168C222.865 163.968 222.561 164.848 221.953 165.808C221.345 166.768 220.481 167.664 219.361 168.496C218.881 168.848 218.273 169.184 217.537 169.504C216.801 169.824 216.065 170.096 215.329 170.32C214.593 170.512 213.985 170.608 213.505 170.608C213.345 170.992 213.185 171.504 213.025 172.144C212.897 172.784 212.833 173.44 212.833 174.112C212.833 174.912 212.993 175.632 213.313 176.272C213.633 176.912 214.225 177.232 215.089 177.232C216.145 177.232 217.105 176.928 217.969 176.32C218.833 175.712 219.601 174.96 220.273 174.064C220.945 173.136 221.505 172.208 221.953 171.28C222.433 170.352 222.817 169.568 223.105 168.928C223.297 168.48 223.553 168.256 223.873 168.256C224.033 168.256 224.113 168.336 224.113 168.496C224.113 168.624 224.065 168.784 223.969 168.976C223.521 169.936 223.041 170.96 222.529 172.048C222.017 173.104 221.409 174.112 220.705 175.072C220.001 176 219.153 176.752 218.161 177.328C217.201 177.904 216.049 178.192 214.705 178.192ZM213.841 169.744C214.289 169.744 215.041 169.584 216.097 169.264C217.153 168.912 218.113 168.368 218.977 167.632C219.809 166.896 220.449 166.096 220.897 165.232C221.345 164.336 221.569 163.584 221.569 162.976C221.569 162.272 221.313 161.92 220.801 161.92C220.417 161.92 219.889 162.176 219.217 162.688C218.545 163.2 217.713 164.064 216.721 165.28C216.113 166.048 215.537 166.88 214.993 167.776C214.449 168.672 214.065 169.328 213.841 169.744ZM228.58 158.512C228.1 158.512 227.7 158.352 227.38 158.032C227.092 157.68 226.948 157.264 226.948 156.784C226.948 156.176 227.188 155.648 227.668 155.2C228.148 154.752 228.676 154.528 229.252 154.528C229.764 154.528 230.18 154.688 230.5 155.008C230.82 155.328 230.98 155.712 230.98 156.16C230.98 156.768 230.74 157.312 230.26 157.792C229.78 158.272 229.22 158.512 228.58 158.512ZM224.692 178C223.508 178 222.676 177.664 222.196 176.992C221.716 176.288 221.476 175.488 221.476 174.592C221.476 174.112 221.524 173.632 221.62 173.152C221.748 172.64 221.892 172.176 222.052 171.76L225.268 163.552C225.364 163.296 225.412 163.072 225.412 162.88C225.412 162.56 225.332 162.288 225.172 162.064C225.012 161.808 224.9 161.632 224.836 161.536L227.476 161.44C227.956 161.408 228.292 161.472 228.484 161.632C228.708 161.76 228.82 161.92 228.82 162.112C228.82 162.304 228.708 162.656 228.484 163.168L224.5 172.528C224.5 172.528 224.404 172.736 224.212 173.152C224.052 173.536 223.956 173.792 223.924 173.92C223.828 174.4 223.764 174.704 223.732 174.832C223.7 174.96 223.684 175.04 223.684 175.072C223.684 175.104 223.684 175.232 223.684 175.456C223.684 175.872 223.78 176.224 223.972 176.512C224.196 176.8 224.564 176.944 225.076 176.944C225.396 176.944 225.764 176.848 226.18 176.656C226.596 176.464 226.9 176.272 227.092 176.08C227.892 175.248 228.676 174.16 229.444 172.816C230.244 171.44 230.98 170.08 231.652 168.736C231.78 168.416 231.94 168.256 232.132 168.256C232.292 168.256 232.372 168.368 232.372 168.592C232.372 168.72 232.324 168.912 232.228 169.168C231.908 169.84 231.508 170.672 231.028 171.664C230.548 172.656 229.972 173.648 229.3 174.64C228.66 175.6 227.956 176.4 227.188 177.04C226.42 177.68 225.588 178 224.692 178ZM242.009 178.144C241.657 178.176 241.257 178.096 240.809 177.904C240.361 177.712 239.961 177.36 239.609 176.848C239.289 176.336 239.129 175.616 239.129 174.688C239.129 173.92 239.273 172.992 239.561 171.904C239.177 172.512 238.681 173.264 238.073 174.16C237.465 175.024 236.809 175.792 236.105 176.464C235.497 177.04 234.921 177.456 234.377 177.712C233.833 177.968 233.337 178.096 232.889 178.096C232.057 178.096 231.385 177.728 230.873 176.992C230.361 176.224 230.105 175.232 230.105 174.016C230.105 172.736 230.425 171.28 231.065 169.648C231.705 168.016 232.745 166.32 234.185 164.56C235.113 163.44 236.233 162.544 237.545 161.872C238.889 161.168 240.201 160.816 241.481 160.816C242.217 160.816 242.921 160.944 243.593 161.2C244.265 161.424 244.857 161.808 245.369 162.352C245.593 162.576 245.705 162.832 245.705 163.12C245.705 163.312 245.625 163.472 245.465 163.6C245.305 163.728 245.097 163.76 244.841 163.696C244.489 162.576 243.737 162.016 242.585 162.016C242.041 162.016 241.417 162.192 240.713 162.544C239.625 163.12 238.489 164.064 237.305 165.376C236.153 166.688 235.145 168.048 234.281 169.456C234.153 169.648 233.945 170.016 233.657 170.56C233.401 171.104 233.145 171.712 232.889 172.384C232.633 173.056 232.457 173.712 232.361 174.352C232.329 174.544 232.313 174.688 232.313 174.784C232.313 174.848 232.313 174.96 232.313 175.12C232.313 176.176 232.713 176.704 233.513 176.704C234.473 176.704 235.561 176 236.777 174.592C237.609 173.568 238.361 172.496 239.033 171.376C239.705 170.256 240.393 169.056 241.097 167.776C241.577 166.912 242.025 166.192 242.441 165.616C242.857 165.04 243.449 164.752 244.217 164.752C244.569 164.752 244.921 164.8 245.273 164.896C245.625 164.992 245.993 165.008 246.377 164.944C246.121 165.2 245.769 165.68 245.321 166.384C244.905 167.088 244.457 167.888 243.977 168.784C243.497 169.68 243.065 170.592 242.681 171.52C242.297 172.448 242.025 173.248 241.865 173.92C241.833 174.112 241.785 174.384 241.721 174.736C241.689 175.088 241.673 175.344 241.673 175.504C241.673 176.4 241.929 176.848 242.441 176.848C242.953 176.848 243.497 176.544 244.073 175.936C244.681 175.328 245.273 174.576 245.849 173.68C246.425 172.784 246.953 171.888 247.433 170.992C247.913 170.064 248.297 169.312 248.585 168.736C248.713 168.416 248.905 168.256 249.161 168.256C249.321 168.256 249.401 168.368 249.401 168.592C249.401 168.688 249.353 168.864 249.257 169.12C248.873 169.92 248.409 170.832 247.865 171.856C247.321 172.848 246.729 173.824 246.089 174.784C245.449 175.712 244.777 176.496 244.073 177.136C243.401 177.744 242.713 178.08 242.009 178.144Z" fill="#F4E8F2"/>
<path d="M130.853 0L147.762 54.5877L202.479 54.5877L158.212 88.3247L175.12 142.912L130.853 109.175L86.5866 142.912L103.495 88.3247L59.2281 54.5877L113.945 54.5877L130.853 0Z" fill="#F4E8F2"/>
<path d="M149.965 126.978C149.581 126.978 149.496 126.679 149.709 126.082C149.965 125.527 150.2 125.015 150.413 124.546C150.797 123.778 150.989 122.583 150.989 120.962C150.989 119.554 150.733 118.039 150.221 116.418C149.709 114.796 148.707 113.324 147.213 112.002C145.165 110.124 142.861 108.631 140.301 107.522C137.741 106.412 135.053 105.516 132.237 104.834C129.464 104.151 126.712 103.554 123.981 103.042C122.317 105.346 120.525 107.415 118.605 109.25C116.728 111.084 114.723 112.492 112.589 113.474C111.395 114.028 110.243 114.434 109.133 114.69C108.024 114.988 106.979 115.138 105.997 115.138C103.608 115.138 101.645 114.498 100.109 113.218C98.616 111.98 97.8694 110.508 97.8694 108.802C97.8694 107.18 98.5947 105.602 100.045 104.066C101.539 102.487 103.992 101.186 107.405 100.162C108.771 99.7775 110.285 99.5002 111.949 99.3295C113.613 99.1162 115.341 99.0095 117.133 99.0095C118.243 99.0095 119.331 99.0522 120.397 99.1375C121.507 99.1802 122.531 99.3082 123.469 99.5215C124.707 97.6442 125.859 95.7029 126.925 93.6975C127.992 91.6495 129.101 89.4309 130.253 87.0415C126.883 87.1269 123.96 86.6362 121.485 85.5695C119.011 84.4602 117.091 82.9882 115.725 81.1535C114.403 79.3189 113.741 77.3562 113.741 75.2655C113.741 73.5589 114.232 71.8949 115.213 70.2735C116.195 68.6095 117.731 67.1162 119.821 65.7935C121.955 64.4282 124.664 63.3615 127.949 62.5935C128.163 62.5082 128.355 62.4655 128.525 62.4655C128.739 62.4655 128.931 62.4655 129.101 62.4655C129.741 62.4655 130.061 62.5935 130.061 62.8495C130.061 63.2762 129.379 63.5749 128.013 63.7455C125.795 64.0015 123.832 64.7909 122.125 66.1135C120.461 67.4362 119.16 69.0149 118.221 70.8495C117.325 72.6842 116.877 74.5402 116.877 76.4175C116.877 78.0389 117.261 79.5535 118.029 80.9615C118.797 82.3695 120.013 83.5215 121.677 84.4175C123.341 85.2709 125.496 85.6975 128.141 85.6975C129.08 85.6975 130.083 85.6335 131.149 85.5055C131.32 85.1642 131.597 84.4815 131.981 83.4575C132.408 82.3909 132.877 81.1962 133.389 79.8735C133.901 78.5509 134.392 77.2709 134.861 76.0335C135.373 74.7962 135.779 73.7722 136.077 72.9615C136.419 72.1082 136.589 71.6815 136.589 71.6815C138.552 66.7749 140.557 62.9349 142.605 60.1615C144.696 57.3455 146.701 55.3615 148.621 54.2095C150.584 53.0575 152.333 52.4815 153.869 52.4815C155.533 52.4815 156.899 52.9722 157.965 53.9535C159.075 54.9349 159.672 56.0442 159.757 57.2815C159.8 57.6655 159.821 57.9429 159.821 58.1135C159.821 58.2842 159.821 58.4975 159.821 58.7535C159.821 61.2709 159.309 63.7882 158.285 66.3055C157.304 68.8229 155.917 71.2122 154.125 73.4735C152.376 75.7349 150.349 77.7829 148.045 79.6175C145.784 81.4522 143.352 82.9882 140.749 84.2255C138.189 85.4629 135.587 86.3162 132.941 86.7855C132.301 88.0655 131.725 89.2175 131.213 90.2415C130.744 91.2229 130.211 92.2895 129.613 93.4415C129.016 94.5935 128.227 96.0655 127.245 97.8575C126.947 98.4122 126.712 98.8175 126.541 99.0735C126.413 99.2869 126.2 99.6282 125.901 100.098C128.035 100.61 130.36 101.335 132.877 102.274C135.395 103.17 137.869 104.258 140.301 105.538C142.776 106.775 144.973 108.14 146.893 109.634C149.283 111.468 150.968 113.538 151.949 115.842C152.973 118.146 153.485 120.172 153.485 121.922C153.485 123.159 153.293 124.098 152.909 124.738C152.355 125.676 151.8 126.274 151.245 126.53C150.691 126.828 150.264 126.978 149.965 126.978ZM133.837 85.0575C136.739 84.4175 139.576 83.2655 142.349 81.6015C145.123 79.8949 147.619 77.8469 149.837 75.4575C152.056 73.0255 153.827 70.4015 155.149 67.5855C156.472 64.7269 157.133 61.8255 157.133 58.8815C157.133 58.1562 156.941 57.5589 156.557 57.0895C156.173 56.6202 155.619 56.3855 154.893 56.3855C153.912 56.3855 152.653 56.9402 151.117 58.0495C149.581 59.1162 147.832 60.9295 145.869 63.4895C143.907 66.0069 141.795 69.4842 139.533 73.9215C139.533 73.9215 139.235 74.4762 138.637 75.5855C138.083 76.6949 137.357 78.1029 136.461 79.8095C135.608 81.4735 134.733 83.2229 133.837 85.0575ZM105.101 113.282C106.04 113.282 107.043 113.154 108.109 112.898C109.219 112.642 110.371 112.236 111.565 111.682C115.149 109.932 118.456 106.903 121.485 102.594C120.504 102.38 119.48 102.231 118.413 102.146C117.347 102.018 116.259 101.954 115.149 101.954C113.997 101.954 112.803 102.018 111.565 102.146C110.371 102.274 109.197 102.508 108.045 102.85C105.187 103.618 102.989 104.599 101.453 105.794C99.96 106.988 99.2134 108.204 99.2134 109.442C99.2134 110.508 99.7467 111.404 100.813 112.13C101.88 112.898 103.309 113.282 105.101 113.282Z" fill="#ED00B9"/>
</svg>
