<svg width="257" height="216" viewBox="0 0 257 216" fill="none" xmlns="http://www.w3.org/2000/svg">
<path d="M28.5959 182.688C25.4599 182.688 22.5799 182.224 19.9559 181.296C17.3639 180.368 15.2679 179.008 13.6679 177.216C12.0679 175.392 11.1879 173.152 11.0279 170.496C10.9639 169.408 11.1399 168.208 11.5559 166.896C11.9719 165.584 12.5479 164.288 13.2839 163.008C14.0519 161.696 14.9479 160.528 15.9719 159.504C17.0279 158.448 18.1479 157.648 19.3319 157.104C19.4279 157.04 19.5719 156.992 19.7639 156.96C19.9879 156.928 20.1479 156.912 20.2439 156.912C20.4359 156.912 20.5319 156.96 20.5319 157.056C20.5319 157.216 20.2919 157.472 19.8119 157.824C18.4679 158.88 17.3639 160.096 16.4999 161.472C15.6039 162.848 14.9319 164.32 14.4839 165.888C14.0359 167.456 13.8119 169.04 13.8119 170.64C13.8119 172.528 14.2119 174.16 15.0119 175.536C15.8439 176.88 16.9479 177.984 18.3239 178.848C19.6999 179.744 21.2679 180.4 23.0279 180.816C24.7879 181.232 26.6279 181.44 28.5479 181.44C30.6919 181.44 32.8039 181.2 34.8839 180.72C36.9959 180.24 38.9159 179.552 40.6439 178.656C43.2999 177.248 45.3959 175.504 46.9319 173.424C48.4999 171.344 49.2839 169.28 49.2839 167.232C49.2839 166.144 49.0439 165.104 48.5639 164.112C48.1159 163.12 47.3799 162.224 46.3559 161.424C45.5879 160.816 44.6439 160.24 43.5239 159.696C42.4359 159.152 41.2679 158.624 40.0199 158.112C38.8039 157.6 37.6039 157.088 36.4199 156.576C35.2359 156.032 34.1959 155.456 33.2999 154.848C32.0199 153.984 31.0759 153.056 30.4679 152.064C29.8919 151.072 29.6039 150.08 29.6039 149.088C29.6039 147.904 29.9399 146.752 30.6119 145.632C31.3159 144.512 32.2599 143.504 33.4439 142.608C34.6599 141.68 36.0199 140.96 37.5239 140.448C38.8359 140 40.2599 139.648 41.7959 139.392C43.3639 139.136 44.8999 139.008 46.4039 139.008C47.6519 139.008 48.8359 139.104 49.9559 139.296C51.1079 139.456 52.1159 139.76 52.9799 140.208C54.0679 140.72 54.8999 141.408 55.4759 142.272C56.0519 143.104 56.3399 143.984 56.3399 144.912C56.3399 146.192 55.7639 147.312 54.6119 148.272C54.1959 148.592 53.7319 148.896 53.2199 149.184C52.7079 149.44 52.0999 149.664 51.3959 149.856C51.2679 149.888 51.1239 149.904 50.9639 149.904C50.5799 149.904 50.3879 149.792 50.3879 149.568C50.3879 149.44 50.4839 149.312 50.6759 149.184C50.8999 149.024 51.2199 148.928 51.6359 148.896C52.5959 148.768 53.3159 148.4 53.7959 147.792C54.3079 147.184 54.5639 146.48 54.5639 145.68C54.5639 144.848 54.2759 144.032 53.6999 143.232C53.1559 142.4 52.3079 141.712 51.1559 141.168C50.0039 140.592 48.5319 140.304 46.7399 140.304C45.7159 140.304 44.5799 140.416 43.3319 140.64C42.1159 140.864 40.7879 141.232 39.3479 141.744C37.5879 142.352 36.1159 143.248 34.9319 144.432C33.7799 145.616 33.2039 146.88 33.2039 148.224C33.2039 149.056 33.4759 149.904 34.0199 150.768C34.5959 151.6 35.5079 152.4 36.7559 153.168C37.8119 153.808 39.0119 154.448 40.3559 155.088C41.6999 155.696 43.0599 156.32 44.4359 156.96C45.8119 157.568 47.0599 158.224 48.1799 158.928C49.9399 160.016 51.2039 161.184 51.9719 162.432C52.7399 163.68 53.1239 164.96 53.1239 166.272C53.1239 167.808 52.6599 169.36 51.7319 170.928C50.8359 172.464 49.6519 173.92 48.1799 175.296C46.7079 176.64 45.0919 177.84 43.3319 178.896C41.2839 180.112 38.9639 181.04 36.3719 181.68C33.8119 182.352 31.2199 182.688 28.5959 182.688ZM67.7279 178.416C67.3759 178.448 66.9759 178.368 66.5279 178.176C66.0799 177.984 65.6799 177.632 65.3279 177.12C65.0079 176.608 64.8479 175.888 64.8479 174.96C64.8479 174.192 64.9919 173.264 65.2799 172.176C64.8959 172.784 64.3999 173.536 63.7919 174.432C63.1839 175.296 62.5279 176.064 61.8239 176.736C61.2159 177.312 60.6399 177.728 60.0959 177.984C59.5519 178.24 59.0559 178.368 58.6079 178.368C57.7759 178.368 57.1039 178 56.5919 177.264C56.0799 176.496 55.8239 175.504 55.8239 174.288C55.8239 173.008 56.1439 171.552 56.7839 169.92C57.4239 168.288 58.4639 166.592 59.9039 164.832C60.8319 163.712 61.9519 162.816 63.2639 162.144C64.6079 161.44 65.9199 161.088 67.1999 161.088C67.9359 161.088 68.6399 161.216 69.3119 161.472C69.9839 161.696 70.5759 162.08 71.0879 162.624C71.3119 162.848 71.4239 163.104 71.4239 163.392C71.4239 163.584 71.3439 163.744 71.1839 163.872C71.0239 164 70.8159 164.032 70.5599 163.968C70.2079 162.848 69.4559 162.288 68.3039 162.288C67.7599 162.288 67.1359 162.464 66.4319 162.816C65.3439 163.392 64.2079 164.336 63.0239 165.648C61.8719 166.96 60.8639 168.32 59.9999 169.728C59.8719 169.92 59.6639 170.288 59.3759 170.832C59.1199 171.376 58.8639 171.984 58.6079 172.656C58.3519 173.328 58.1759 173.984 58.0799 174.624C58.0479 174.816 58.0319 174.96 58.0319 175.056C58.0319 175.12 58.0319 175.232 58.0319 175.392C58.0319 176.448 58.4319 176.976 59.2319 176.976C60.1919 176.976 61.2799 176.272 62.4959 174.864C63.3279 173.84 64.0799 172.768 64.7519 171.648C65.4239 170.528 66.1119 169.328 66.8159 168.048C67.2959 167.184 67.7439 166.464 68.1599 165.888C68.5759 165.312 69.1679 165.024 69.9359 165.024C70.2879 165.024 70.6399 165.072 70.9919 165.168C71.3439 165.264 71.7119 165.28 72.0959 165.216C71.8399 165.472 71.4879 165.952 71.0399 166.656C70.6239 167.36 70.1759 168.16 69.6959 169.056C69.2159 169.952 68.7839 170.864 68.3999 171.792C68.0159 172.72 67.7439 173.52 67.5839 174.192C67.5519 174.384 67.5039 174.656 67.4399 175.008C67.4079 175.36 67.3919 175.616 67.3919 175.776C67.3919 176.672 67.6479 177.12 68.1599 177.12C68.6719 177.12 69.2159 176.816 69.7919 176.208C70.3999 175.6 70.9919 174.848 71.5679 173.952C72.1439 173.056 72.6719 172.16 73.1519 171.264C73.6319 170.336 74.0159 169.584 74.3039 169.008C74.4319 168.688 74.6239 168.528 74.8799 168.528C75.0399 168.528 75.1199 168.64 75.1199 168.864C75.1199 168.96 75.0719 169.136 74.9759 169.392C74.5919 170.192 74.1279 171.104 73.5839 172.128C73.0399 173.12 72.4479 174.096 71.8079 175.056C71.1679 175.984 70.4959 176.768 69.7919 177.408C69.1199 178.016 68.4319 178.352 67.7279 178.416ZM76.6349 178.416C75.2909 178.416 74.3789 178.064 73.8989 177.36C73.4189 176.624 73.1789 175.76 73.1789 174.768C73.1789 173.744 73.3229 172.688 73.6109 171.6C73.8989 170.512 74.1549 169.6 74.3789 168.864C74.8909 167.072 75.5309 165.168 76.2989 163.152C77.0989 161.104 77.9629 159.104 78.8909 157.152C79.8509 155.168 80.7949 153.392 81.7229 151.824C82.4589 150.576 83.2429 149.648 84.0749 149.04C84.9389 148.4 85.6909 148.08 86.3309 148.08C86.8429 148.08 87.2429 148.272 87.5309 148.656C87.8509 149.008 88.0109 149.552 88.0109 150.288C88.0109 150.8 87.9149 151.408 87.7229 152.112C87.5629 152.816 87.2749 153.616 86.8589 154.512C85.7389 157.008 84.3949 159.504 82.8269 162C81.2909 164.496 79.3389 166.832 76.9709 169.008C76.8429 169.424 76.6669 169.92 76.4429 170.496C76.2509 171.04 76.0749 171.6 75.9149 172.176C75.7229 173.04 75.6269 173.776 75.6269 174.384C75.6269 175.376 75.8189 176.128 76.2029 176.64C76.6189 177.12 77.1149 177.36 77.6909 177.36C78.2029 177.36 78.7469 177.184 79.3229 176.832C79.8989 176.448 80.4429 175.904 80.9549 175.2C81.7229 174.08 82.4109 172.944 83.0189 171.792C83.6589 170.608 84.1389 169.696 84.4589 169.056C84.6509 168.704 84.8589 168.528 85.0829 168.528C85.2429 168.528 85.3229 168.624 85.3229 168.816C85.3229 168.976 85.2749 169.152 85.1789 169.344C84.8909 169.984 84.5069 170.816 84.0269 171.84C83.5789 172.832 83.0029 173.84 82.2989 174.864C81.6269 175.856 80.8109 176.704 79.8509 177.408C78.9229 178.08 77.8509 178.416 76.6349 178.416ZM77.3549 167.472C78.5069 166.288 79.6269 164.928 80.7149 163.392C81.8029 161.824 82.8109 160.208 83.7389 158.544C84.6989 156.848 85.4989 155.248 86.1389 153.744C86.3629 153.264 86.5389 152.736 86.6669 152.16C86.8269 151.584 86.9069 151.104 86.9069 150.72C86.9069 150.272 86.7949 150.048 86.5709 150.048C86.4429 150.048 86.2509 150.176 85.9949 150.432C85.7389 150.656 85.4029 151.056 84.9869 151.632C84.3789 152.432 83.7069 153.52 82.9709 154.896C82.2669 156.272 81.5469 157.744 80.8109 159.312C80.0749 160.88 79.4029 162.4 78.7949 163.872C78.1869 165.312 77.7069 166.512 77.3549 167.472ZM94.8216 178.416C94.4696 178.448 94.0696 178.368 93.6216 178.176C93.1736 177.984 92.7736 177.632 92.4216 177.12C92.1016 176.608 91.9416 175.888 91.9416 174.96C91.9416 174.192 92.0856 173.264 92.3736 172.176C91.9896 172.784 91.4936 173.536 90.8856 174.432C90.2776 175.296 89.6216 176.064 88.9176 176.736C88.3096 177.312 87.7336 177.728 87.1896 177.984C86.6456 178.24 86.1496 178.368 85.7016 178.368C84.8696 178.368 84.1976 178 83.6856 177.264C83.1736 176.496 82.9176 175.504 82.9176 174.288C82.9176 173.008 83.2376 171.552 83.8776 169.92C84.5176 168.288 85.5576 166.592 86.9976 164.832C87.9256 163.712 89.0456 162.816 90.3576 162.144C91.7016 161.44 93.0136 161.088 94.2936 161.088C95.0296 161.088 95.7336 161.216 96.4056 161.472C97.0776 161.696 97.6696 162.08 98.1816 162.624C98.4056 162.848 98.5176 163.104 98.5176 163.392C98.5176 163.584 98.4376 163.744 98.2776 163.872C98.1176 164 97.9096 164.032 97.6536 163.968C97.3016 162.848 96.5496 162.288 95.3976 162.288C94.8536 162.288 94.2296 162.464 93.5256 162.816C92.4376 163.392 91.3016 164.336 90.1176 165.648C88.9656 166.96 87.9576 168.32 87.0936 169.728C86.9656 169.92 86.7576 170.288 86.4696 170.832C86.2136 171.376 85.9576 171.984 85.7016 172.656C85.4456 173.328 85.2696 173.984 85.1736 174.624C85.1416 174.816 85.1256 174.96 85.1256 175.056C85.1256 175.12 85.1256 175.232 85.1256 175.392C85.1256 176.448 85.5256 176.976 86.3256 176.976C87.2856 176.976 88.3736 176.272 89.5896 174.864C90.4216 173.84 91.1736 172.768 91.8456 171.648C92.5176 170.528 93.2056 169.328 93.9096 168.048C94.3896 167.184 94.8376 166.464 95.2536 165.888C95.6696 165.312 96.2616 165.024 97.0296 165.024C97.3816 165.024 97.7336 165.072 98.0856 165.168C98.4376 165.264 98.8056 165.28 99.1896 165.216C98.9336 165.472 98.5816 165.952 98.1336 166.656C97.7176 167.36 97.2696 168.16 96.7896 169.056C96.3096 169.952 95.8776 170.864 95.4936 171.792C95.1096 172.72 94.8376 173.52 94.6776 174.192C94.6456 174.384 94.5976 174.656 94.5336 175.008C94.5016 175.36 94.4856 175.616 94.4856 175.776C94.4856 176.672 94.7416 177.12 95.2536 177.12C95.7656 177.12 96.3096 176.816 96.8856 176.208C97.4936 175.6 98.0856 174.848 98.6616 173.952C99.2376 173.056 99.7656 172.16 100.246 171.264C100.726 170.336 101.11 169.584 101.398 169.008C101.526 168.688 101.718 168.528 101.974 168.528C102.134 168.528 102.214 168.64 102.214 168.864C102.214 168.96 102.166 169.136 102.07 169.392C101.686 170.192 101.222 171.104 100.678 172.128C100.134 173.12 99.5416 174.096 98.9016 175.056C98.2616 175.984 97.5896 176.768 96.8856 177.408C96.2136 178.016 95.5256 178.352 94.8216 178.416ZM103.51 154.416C103.126 155.216 102.566 156.032 101.83 156.864C101.126 157.664 100.262 158.064 99.2376 158.064C98.5336 158.064 97.8456 157.92 97.1736 157.632C96.5336 157.312 95.8936 157.008 95.2536 156.72C94.6136 156.432 93.9576 156.288 93.2856 156.288C92.7736 156.288 92.3256 156.432 91.9416 156.72C91.5896 157.008 91.3016 157.36 91.0776 157.776C91.0456 157.872 90.9016 157.92 90.6456 157.92C90.4856 157.92 90.3256 157.904 90.1656 157.872C90.0376 157.808 89.9896 157.744 90.0216 157.68C90.4376 156.944 90.9976 156.192 91.7016 155.424C92.4056 154.656 93.2536 154.272 94.2456 154.272C94.9816 154.272 95.6856 154.416 96.3576 154.704C97.0296 154.992 97.6856 155.28 98.3256 155.568C98.9976 155.824 99.6696 155.952 100.342 155.952C100.886 155.952 101.334 155.808 101.686 155.52C102.038 155.2 102.326 154.8 102.55 154.32C102.614 154.224 102.742 154.176 102.934 154.176C103.094 154.176 103.238 154.208 103.366 154.272C103.494 154.304 103.542 154.352 103.51 154.416ZM103.633 178.272C102.417 178.272 101.521 177.872 100.945 177.072C100.369 176.24 100.081 175.232 100.081 174.048C100.081 172.608 100.417 171.104 101.089 169.536C101.729 168.064 102.545 166.72 103.537 165.504C104.529 164.288 105.601 163.312 106.753 162.576C107.905 161.808 109.025 161.424 110.113 161.424C111.329 161.424 112.225 161.824 112.801 162.624C113.377 163.424 113.665 164.432 113.665 165.648C113.665 167.12 113.329 168.624 112.657 170.16C112.273 171.024 111.729 171.984 111.025 173.04C110.321 174.064 109.521 175.008 108.625 175.872C108.817 176.224 109.089 176.528 109.441 176.784C109.793 177.008 110.273 177.12 110.881 177.12C111.649 177.12 112.369 176.8 113.041 176.16C113.745 175.52 114.385 174.752 114.961 173.856C115.537 172.928 116.049 172 116.497 171.072C116.945 170.144 117.313 169.392 117.601 168.816C117.697 168.624 117.857 168.528 118.081 168.528C118.209 168.528 118.305 168.592 118.369 168.72C118.433 168.816 118.417 168.976 118.321 169.2C118.129 169.68 117.809 170.4 117.361 171.36C116.913 172.288 116.369 173.264 115.729 174.288C115.089 175.28 114.353 176.128 113.521 176.832C112.689 177.536 111.761 177.888 110.737 177.888C110.033 177.888 109.425 177.776 108.913 177.552C108.401 177.296 107.985 176.992 107.665 176.64C106.993 177.152 106.321 177.552 105.649 177.84C104.977 178.128 104.305 178.272 103.633 178.272ZM104.353 177.216C105.217 177.216 106.145 176.8 107.137 175.968C106.881 175.584 106.689 175.184 106.561 174.768C106.433 174.352 106.369 173.968 106.369 173.616C106.369 173.04 106.497 172.544 106.753 172.128C107.041 171.712 107.473 171.504 108.049 171.504C108.465 171.504 108.801 171.664 109.057 171.984C109.345 172.272 109.489 172.608 109.489 172.992C109.489 173.088 109.473 173.184 109.441 173.28C109.441 173.344 109.425 173.424 109.393 173.52C109.937 172.784 110.449 171.92 110.929 170.928C111.985 168.656 112.513 166.784 112.513 165.312C112.513 164.576 112.369 164 112.081 163.584C111.793 163.168 111.361 162.96 110.785 162.96C110.113 162.96 109.377 163.248 108.577 163.824C107.809 164.4 107.057 165.168 106.321 166.128C105.617 167.088 104.993 168.16 104.449 169.344C103.937 170.432 103.521 171.488 103.201 172.512C102.913 173.504 102.769 174.368 102.769 175.104C102.769 175.744 102.897 176.256 103.153 176.64C103.409 177.024 103.809 177.216 104.353 177.216ZM140.484 178.272C139.62 178.272 138.9 177.84 138.324 176.976C138.164 176.72 138.02 176.384 137.892 175.968C137.764 175.552 137.7 175.088 137.7 174.576C137.7 174.288 137.716 174 137.748 173.712C137.78 173.392 137.844 173.072 137.94 172.752C137.492 173.456 136.964 174.24 136.356 175.104C135.78 175.936 135.108 176.672 134.34 177.312C133.604 177.92 132.772 178.224 131.844 178.224C131.524 178.224 131.188 178.176 130.836 178.08C129.972 177.824 129.348 177.376 128.964 176.736C128.612 176.096 128.436 175.328 128.436 174.432C128.436 173.44 128.628 172.352 129.012 171.168C129.428 169.984 129.94 168.832 130.548 167.712C131.188 166.592 131.844 165.632 132.516 164.832C133.476 163.712 134.58 162.816 135.828 162.144C137.076 161.472 138.34 161.136 139.62 161.136C140.772 161.136 141.86 161.44 142.884 162.048C143.364 161.152 143.876 160.16 144.42 159.072C144.964 157.952 145.508 156.848 146.052 155.76C146.596 154.672 147.076 153.68 147.492 152.784C147.908 151.856 148.228 151.152 148.452 150.672C148.932 149.552 149.38 148.848 149.796 148.56C150.244 148.24 150.772 148.08 151.38 148.08C151.732 148.08 152.116 148.128 152.531 148.224C152.98 148.288 153.412 148.304 153.828 148.272C153.636 148.464 153.236 149.024 152.628 149.952C152.052 150.848 151.364 152 150.564 153.408C149.764 154.816 148.9 156.368 147.972 158.064C147.076 159.728 146.18 161.424 145.284 163.152C144.42 164.848 143.604 166.464 142.836 168C142.1 169.504 141.508 170.8 141.06 171.888C140.932 172.144 140.74 172.672 140.484 173.472C140.26 174.24 140.148 174.912 140.148 175.488C140.148 175.904 140.244 176.272 140.436 176.592C140.628 176.88 140.948 177.024 141.396 177.024C142.004 177.024 142.612 176.72 143.22 176.112C143.86 175.472 144.468 174.704 145.044 173.808C145.62 172.88 146.132 171.984 146.58 171.12C147.028 170.224 147.364 169.52 147.588 169.008C147.748 168.656 147.94 168.48 148.164 168.48C148.356 168.48 148.452 168.624 148.452 168.912C148.452 168.944 148.452 169.008 148.452 169.104C148.452 169.168 148.42 169.248 148.356 169.344C148.068 170.016 147.668 170.848 147.156 171.84C146.676 172.832 146.1 173.824 145.428 174.816C144.756 175.808 144.004 176.64 143.172 177.312C142.34 177.952 141.444 178.272 140.484 178.272ZM132.18 176.832C132.628 176.832 133.188 176.592 133.86 176.112C134.532 175.6 135.252 174.8 136.02 173.712C136.916 172.432 137.94 170.832 139.092 168.912C140.244 166.992 141.38 164.96 142.5 162.816C142.084 162.432 141.604 162.24 141.06 162.24C140.164 162.24 139.156 162.656 138.036 163.488C136.948 164.32 135.876 165.376 134.82 166.656C133.796 167.936 132.932 169.232 132.228 170.544C131.748 171.44 131.396 172.256 131.172 172.992C130.98 173.728 130.884 174.368 130.884 174.912C130.884 176.192 131.316 176.832 132.18 176.832ZM157.962 178.416C157.61 178.448 157.21 178.368 156.762 178.176C156.314 177.984 155.914 177.632 155.562 177.12C155.242 176.608 155.082 175.888 155.082 174.96C155.082 174.192 155.226 173.264 155.514 172.176C155.13 172.784 154.634 173.536 154.026 174.432C153.418 175.296 152.762 176.064 152.058 176.736C151.45 177.312 150.874 177.728 150.33 177.984C149.786 178.24 149.29 178.368 148.842 178.368C148.01 178.368 147.338 178 146.826 177.264C146.314 176.496 146.058 175.504 146.058 174.288C146.058 173.008 146.378 171.552 147.018 169.92C147.658 168.288 148.698 166.592 150.138 164.832C151.066 163.712 152.186 162.816 153.498 162.144C154.842 161.44 156.154 161.088 157.434 161.088C158.17 161.088 158.874 161.216 159.546 161.472C160.218 161.696 160.81 162.08 161.322 162.624C161.546 162.848 161.658 163.104 161.658 163.392C161.658 163.584 161.578 163.744 161.418 163.872C161.258 164 161.05 164.032 160.794 163.968C160.442 162.848 159.69 162.288 158.538 162.288C157.994 162.288 157.37 162.464 156.666 162.816C155.578 163.392 154.442 164.336 153.258 165.648C152.106 166.96 151.098 168.32 150.234 169.728C150.106 169.92 149.898 170.288 149.61 170.832C149.354 171.376 149.098 171.984 148.842 172.656C148.586 173.328 148.41 173.984 148.314 174.624C148.282 174.816 148.266 174.96 148.266 175.056C148.266 175.12 148.266 175.232 148.266 175.392C148.266 176.448 148.666 176.976 149.466 176.976C150.426 176.976 151.514 176.272 152.73 174.864C153.562 173.84 154.314 172.768 154.986 171.648C155.658 170.528 156.346 169.328 157.05 168.048C157.53 167.184 157.978 166.464 158.394 165.888C158.81 165.312 159.402 165.024 160.17 165.024C160.522 165.024 160.874 165.072 161.226 165.168C161.578 165.264 161.946 165.28 162.33 165.216C162.074 165.472 161.722 165.952 161.274 166.656C160.858 167.36 160.41 168.16 159.93 169.056C159.45 169.952 159.018 170.864 158.634 171.792C158.25 172.72 157.978 173.52 157.818 174.192C157.786 174.384 157.738 174.656 157.674 175.008C157.642 175.36 157.626 175.616 157.626 175.776C157.626 176.672 157.882 177.12 158.394 177.12C158.906 177.12 159.45 176.816 160.026 176.208C160.634 175.6 161.226 174.848 161.802 173.952C162.378 173.056 162.906 172.16 163.386 171.264C163.866 170.336 164.25 169.584 164.538 169.008C164.666 168.688 164.858 168.528 165.114 168.528C165.274 168.528 165.354 168.64 165.354 168.864C165.354 168.96 165.306 169.136 165.21 169.392C164.826 170.192 164.362 171.104 163.818 172.128C163.274 173.12 162.682 174.096 162.042 175.056C161.402 175.984 160.73 176.768 160.026 177.408C159.354 178.016 158.666 178.352 157.962 178.416ZM213.082 192.768C212.794 192.768 212.73 192.544 212.89 192.096C213.082 191.68 213.258 191.296 213.418 190.944C213.706 190.368 213.85 189.472 213.85 188.256C213.85 187.2 213.658 186.064 213.274 184.848C212.89 183.632 212.138 182.528 211.018 181.536C209.482 180.128 207.754 179.008 205.834 178.176C203.914 177.344 201.898 176.672 199.786 176.16C197.706 175.648 195.642 175.2 193.594 174.816C192.346 176.544 191.002 178.096 189.562 179.472C188.154 180.848 186.65 181.904 185.05 182.64C184.154 183.056 183.29 183.36 182.458 183.552C181.626 183.776 180.842 183.888 180.106 183.888C178.314 183.888 176.842 183.408 175.69 182.448C174.57 181.52 174.01 180.416 174.01 179.136C174.01 177.92 174.554 176.736 175.642 175.584C176.762 174.4 178.602 173.424 181.162 172.656C182.186 172.368 183.322 172.16 184.57 172.032C185.818 171.872 187.114 171.792 188.458 171.792C189.29 171.792 190.106 171.824 190.906 171.888C191.738 171.92 192.506 172.016 193.21 172.176C194.138 170.768 195.002 169.312 195.802 167.808C196.602 166.272 197.434 164.608 198.298 162.816C195.77 162.88 193.578 162.512 191.722 161.712C189.866 160.88 188.426 159.776 187.402 158.4C186.41 157.024 185.914 155.552 185.914 153.984C185.914 152.704 186.282 151.456 187.018 150.24C187.754 148.992 188.906 147.872 190.474 146.88C192.074 145.856 194.106 145.056 196.57 144.48C196.73 144.416 196.874 144.384 197.002 144.384C197.162 144.384 197.306 144.384 197.434 144.384C197.914 144.384 198.154 144.48 198.154 144.672C198.154 144.992 197.642 145.216 196.618 145.344C194.954 145.536 193.482 146.128 192.202 147.12C190.954 148.112 189.978 149.296 189.274 150.672C188.602 152.048 188.266 153.44 188.266 154.848C188.266 156.064 188.554 157.2 189.13 158.256C189.706 159.312 190.618 160.176 191.866 160.848C193.114 161.488 194.73 161.808 196.714 161.808C197.418 161.808 198.17 161.76 198.97 161.664C199.098 161.408 199.306 160.896 199.594 160.128C199.914 159.328 200.266 158.432 200.65 157.44C201.034 156.448 201.402 155.488 201.754 154.56C202.138 153.632 202.442 152.864 202.666 152.256C202.922 151.616 203.05 151.296 203.05 151.296C204.522 147.616 206.026 144.736 207.562 142.656C209.13 140.544 210.634 139.056 212.074 138.192C213.546 137.328 214.858 136.896 216.01 136.896C217.258 136.896 218.282 137.264 219.082 138C219.914 138.736 220.362 139.568 220.426 140.496C220.458 140.784 220.474 140.992 220.474 141.12C220.474 141.248 220.474 141.408 220.474 141.6C220.474 143.488 220.09 145.376 219.322 147.264C218.586 149.152 217.546 150.944 216.202 152.64C214.89 154.336 213.37 155.872 211.642 157.248C209.946 158.624 208.122 159.776 206.17 160.704C204.25 161.632 202.298 162.272 200.314 162.624C199.834 163.584 199.402 164.448 199.018 165.216C198.666 165.952 198.266 166.752 197.818 167.616C197.37 168.48 196.778 169.584 196.042 170.928C195.818 171.344 195.642 171.648 195.514 171.84C195.418 172 195.258 172.256 195.034 172.608C196.634 172.992 198.378 173.536 200.266 174.24C202.154 174.912 204.01 175.728 205.834 176.688C207.69 177.616 209.338 178.64 210.778 179.76C212.57 181.136 213.834 182.688 214.57 184.416C215.338 186.144 215.722 187.664 215.722 188.976C215.722 189.904 215.578 190.608 215.29 191.088C214.874 191.792 214.458 192.24 214.042 192.432C213.626 192.656 213.306 192.768 213.082 192.768ZM200.986 161.328C203.162 160.848 205.29 159.984 207.37 158.736C209.45 157.456 211.322 155.92 212.986 154.128C214.65 152.304 215.978 150.336 216.97 148.224C217.962 146.08 218.458 143.904 218.458 141.696C218.458 141.152 218.314 140.704 218.026 140.352C217.738 140 217.322 139.824 216.778 139.824C216.042 139.824 215.098 140.24 213.946 141.072C212.794 141.872 211.482 143.232 210.01 145.152C208.538 147.04 206.954 149.648 205.258 152.976C205.258 152.976 205.034 153.392 204.586 154.224C204.17 155.056 203.626 156.112 202.954 157.392C202.314 158.64 201.658 159.952 200.986 161.328ZM179.434 182.496C180.138 182.496 180.89 182.4 181.69 182.208C182.522 182.016 183.386 181.712 184.282 181.296C186.97 179.984 189.45 177.712 191.722 174.48C190.986 174.32 190.218 174.208 189.418 174.144C188.618 174.048 187.802 174 186.97 174C186.106 174 185.21 174.048 184.282 174.144C183.386 174.24 182.506 174.416 181.642 174.672C179.498 175.248 177.85 175.984 176.698 176.88C175.578 177.776 175.018 178.688 175.018 179.616C175.018 180.416 175.418 181.088 176.218 181.632C177.018 182.208 178.09 182.496 179.434 182.496ZM214.705 178.464C213.521 178.464 212.449 178.08 211.489 177.312C210.561 176.544 210.097 175.376 210.097 173.808C210.097 172.368 210.449 170.832 211.153 169.2C211.857 167.536 212.753 166.08 213.841 164.832C214.769 163.744 215.809 162.848 216.961 162.144C218.113 161.44 219.201 161.088 220.225 161.088C220.929 161.088 221.537 161.28 222.049 161.664C222.593 162.08 222.865 162.672 222.865 163.44C222.865 164.24 222.561 165.12 221.953 166.08C221.345 167.04 220.481 167.936 219.361 168.768C218.881 169.12 218.273 169.456 217.537 169.776C216.801 170.096 216.065 170.368 215.329 170.592C214.593 170.784 213.985 170.88 213.505 170.88C213.345 171.264 213.185 171.776 213.025 172.416C212.897 173.056 212.833 173.712 212.833 174.384C212.833 175.184 212.993 175.904 213.313 176.544C213.633 177.184 214.225 177.504 215.089 177.504C216.145 177.504 217.105 177.2 217.969 176.592C218.833 175.984 219.601 175.232 220.273 174.336C220.945 173.408 221.505 172.48 221.953 171.552C222.433 170.624 222.817 169.84 223.105 169.2C223.297 168.752 223.553 168.528 223.873 168.528C224.033 168.528 224.113 168.608 224.113 168.768C224.113 168.896 224.065 169.056 223.969 169.248C223.521 170.208 223.041 171.232 222.529 172.32C222.017 173.376 221.409 174.384 220.705 175.344C220.001 176.272 219.153 177.024 218.161 177.6C217.201 178.176 216.049 178.464 214.705 178.464ZM213.841 170.016C214.289 170.016 215.041 169.856 216.097 169.536C217.153 169.184 218.113 168.64 218.977 167.904C219.809 167.168 220.449 166.368 220.897 165.504C221.345 164.608 221.569 163.856 221.569 163.248C221.569 162.544 221.313 162.192 220.801 162.192C220.417 162.192 219.889 162.448 219.217 162.96C218.545 163.472 217.713 164.336 216.721 165.552C216.113 166.32 215.537 167.152 214.993 168.048C214.449 168.944 214.065 169.6 213.841 170.016ZM228.58 158.784C228.1 158.784 227.7 158.624 227.38 158.304C227.092 157.952 226.948 157.536 226.948 157.056C226.948 156.448 227.188 155.92 227.668 155.472C228.148 155.024 228.676 154.8 229.252 154.8C229.764 154.8 230.18 154.96 230.5 155.28C230.82 155.6 230.98 155.984 230.98 156.432C230.98 157.04 230.74 157.584 230.26 158.064C229.78 158.544 229.22 158.784 228.58 158.784ZM224.692 178.272C223.508 178.272 222.676 177.936 222.196 177.264C221.716 176.56 221.476 175.76 221.476 174.864C221.476 174.384 221.524 173.904 221.62 173.424C221.748 172.912 221.892 172.448 222.052 172.032L225.268 163.824C225.364 163.568 225.412 163.344 225.412 163.152C225.412 162.832 225.332 162.56 225.172 162.336C225.012 162.08 224.9 161.904 224.836 161.808L227.476 161.712C227.956 161.68 228.292 161.744 228.484 161.904C228.708 162.032 228.82 162.192 228.82 162.384C228.82 162.576 228.708 162.928 228.484 163.44L224.5 172.8C224.5 172.8 224.404 173.008 224.212 173.424C224.052 173.808 223.956 174.064 223.924 174.192C223.828 174.672 223.764 174.976 223.732 175.104C223.7 175.232 223.684 175.312 223.684 175.344C223.684 175.376 223.684 175.504 223.684 175.728C223.684 176.144 223.78 176.496 223.972 176.784C224.196 177.072 224.564 177.216 225.076 177.216C225.396 177.216 225.764 177.12 226.18 176.928C226.596 176.736 226.9 176.544 227.092 176.352C227.892 175.52 228.676 174.432 229.444 173.088C230.244 171.712 230.98 170.352 231.652 169.008C231.78 168.688 231.94 168.528 232.132 168.528C232.292 168.528 232.372 168.64 232.372 168.864C232.372 168.992 232.324 169.184 232.228 169.44C231.908 170.112 231.508 170.944 231.028 171.936C230.548 172.928 229.972 173.92 229.3 174.912C228.66 175.872 227.956 176.672 227.188 177.312C226.42 177.952 225.588 178.272 224.692 178.272ZM242.009 178.416C241.657 178.448 241.257 178.368 240.809 178.176C240.361 177.984 239.961 177.632 239.609 177.12C239.289 176.608 239.129 175.888 239.129 174.96C239.129 174.192 239.273 173.264 239.561 172.176C239.177 172.784 238.681 173.536 238.073 174.432C237.465 175.296 236.809 176.064 236.105 176.736C235.497 177.312 234.921 177.728 234.377 177.984C233.833 178.24 233.337 178.368 232.889 178.368C232.057 178.368 231.385 178 230.873 177.264C230.361 176.496 230.105 175.504 230.105 174.288C230.105 173.008 230.425 171.552 231.065 169.92C231.705 168.288 232.745 166.592 234.185 164.832C235.113 163.712 236.233 162.816 237.545 162.144C238.889 161.44 240.201 161.088 241.481 161.088C242.217 161.088 242.921 161.216 243.593 161.472C244.265 161.696 244.857 162.08 245.369 162.624C245.593 162.848 245.705 163.104 245.705 163.392C245.705 163.584 245.625 163.744 245.465 163.872C245.305 164 245.097 164.032 244.841 163.968C244.489 162.848 243.737 162.288 242.585 162.288C242.041 162.288 241.417 162.464 240.713 162.816C239.625 163.392 238.489 164.336 237.305 165.648C236.153 166.96 235.145 168.32 234.281 169.728C234.153 169.92 233.945 170.288 233.657 170.832C233.401 171.376 233.145 171.984 232.889 172.656C232.633 173.328 232.457 173.984 232.361 174.624C232.329 174.816 232.313 174.96 232.313 175.056C232.313 175.12 232.313 175.232 232.313 175.392C232.313 176.448 232.713 176.976 233.513 176.976C234.473 176.976 235.561 176.272 236.777 174.864C237.609 173.84 238.361 172.768 239.033 171.648C239.705 170.528 240.393 169.328 241.097 168.048C241.577 167.184 242.025 166.464 242.441 165.888C242.857 165.312 243.449 165.024 244.217 165.024C244.569 165.024 244.921 165.072 245.273 165.168C245.625 165.264 245.993 165.28 246.377 165.216C246.121 165.472 245.769 165.952 245.321 166.656C244.905 167.36 244.457 168.16 243.977 169.056C243.497 169.952 243.065 170.864 242.681 171.792C242.297 172.72 242.025 173.52 241.865 174.192C241.833 174.384 241.785 174.656 241.721 175.008C241.689 175.36 241.673 175.616 241.673 175.776C241.673 176.672 241.929 177.12 242.441 177.12C242.953 177.12 243.497 176.816 244.073 176.208C244.681 175.6 245.273 174.848 245.849 173.952C246.425 173.056 246.953 172.16 247.433 171.264C247.913 170.336 248.297 169.584 248.585 169.008C248.713 168.688 248.905 168.528 249.161 168.528C249.321 168.528 249.401 168.64 249.401 168.864C249.401 168.96 249.353 169.136 249.257 169.392C248.873 170.192 248.409 171.104 247.865 172.128C247.321 173.12 246.729 174.096 246.089 175.056C245.449 175.984 244.777 176.768 244.073 177.408C243.401 178.016 242.713 178.352 242.009 178.416Z" fill="#ED00B9"/>
<path d="M130.853 0L147.762 54.5877L202.479 54.5877L158.212 88.3247L175.12 142.912L130.853 109.175L86.5866 142.912L103.495 88.3247L59.2281 54.5877L113.945 54.5877L130.853 0Z" fill="#ED00B9"/>
<path d="M149.965 126.978C149.581 126.978 149.496 126.679 149.709 126.082C149.965 125.527 150.2 125.015 150.413 124.546C150.797 123.778 150.989 122.583 150.989 120.962C150.989 119.554 150.733 118.039 150.221 116.418C149.709 114.796 148.707 113.324 147.213 112.002C145.165 110.124 142.861 108.631 140.301 107.522C137.741 106.412 135.053 105.516 132.237 104.834C129.464 104.151 126.712 103.554 123.981 103.042C122.317 105.346 120.525 107.415 118.605 109.25C116.728 111.084 114.723 112.492 112.589 113.474C111.395 114.028 110.243 114.434 109.133 114.69C108.024 114.988 106.979 115.138 105.997 115.138C103.608 115.138 101.645 114.498 100.109 113.218C98.616 111.98 97.8694 110.508 97.8694 108.802C97.8694 107.18 98.5947 105.602 100.045 104.066C101.539 102.487 103.992 101.186 107.405 100.162C108.771 99.7775 110.285 99.5002 111.949 99.3295C113.613 99.1162 115.341 99.0095 117.133 99.0095C118.243 99.0095 119.331 99.0522 120.397 99.1375C121.507 99.1802 122.531 99.3082 123.469 99.5215C124.707 97.6442 125.859 95.7029 126.925 93.6975C127.992 91.6495 129.101 89.4309 130.253 87.0415C126.883 87.1269 123.96 86.6362 121.485 85.5695C119.011 84.4602 117.091 82.9882 115.725 81.1535C114.403 79.3189 113.741 77.3562 113.741 75.2655C113.741 73.5589 114.232 71.8949 115.213 70.2735C116.195 68.6095 117.731 67.1162 119.821 65.7935C121.955 64.4282 124.664 63.3615 127.949 62.5935C128.163 62.5082 128.355 62.4655 128.525 62.4655C128.739 62.4655 128.931 62.4655 129.101 62.4655C129.741 62.4655 130.061 62.5935 130.061 62.8495C130.061 63.2762 129.379 63.5749 128.013 63.7455C125.795 64.0015 123.832 64.7909 122.125 66.1135C120.461 67.4362 119.16 69.0149 118.221 70.8495C117.325 72.6842 116.877 74.5402 116.877 76.4175C116.877 78.0389 117.261 79.5535 118.029 80.9615C118.797 82.3695 120.013 83.5215 121.677 84.4175C123.341 85.2709 125.496 85.6975 128.141 85.6975C129.08 85.6975 130.083 85.6335 131.149 85.5055C131.32 85.1642 131.597 84.4815 131.981 83.4575C132.408 82.3909 132.877 81.1962 133.389 79.8735C133.901 78.5509 134.392 77.2709 134.861 76.0335C135.373 74.7962 135.779 73.7722 136.077 72.9615C136.419 72.1082 136.589 71.6815 136.589 71.6815C138.552 66.7749 140.557 62.9349 142.605 60.1615C144.696 57.3455 146.701 55.3615 148.621 54.2095C150.584 53.0575 152.333 52.4815 153.869 52.4815C155.533 52.4815 156.899 52.9722 157.965 53.9535C159.075 54.9349 159.672 56.0442 159.757 57.2815C159.8 57.6655 159.821 57.9429 159.821 58.1135C159.821 58.2842 159.821 58.4975 159.821 58.7535C159.821 61.2709 159.309 63.7882 158.285 66.3055C157.304 68.8229 155.917 71.2122 154.125 73.4735C152.376 75.7349 150.349 77.7829 148.045 79.6175C145.784 81.4522 143.352 82.9882 140.749 84.2255C138.189 85.4629 135.587 86.3162 132.941 86.7855C132.301 88.0655 131.725 89.2175 131.213 90.2415C130.744 91.2229 130.211 92.2895 129.613 93.4415C129.016 94.5935 128.227 96.0655 127.245 97.8575C126.947 98.4122 126.712 98.8175 126.541 99.0735C126.413 99.2869 126.2 99.6282 125.901 100.098C128.035 100.61 130.36 101.335 132.877 102.274C135.395 103.17 137.869 104.258 140.301 105.538C142.776 106.775 144.973 108.14 146.893 109.634C149.283 111.468 150.968 113.538 151.949 115.842C152.973 118.146 153.485 120.172 153.485 121.922C153.485 123.159 153.293 124.098 152.909 124.738C152.355 125.676 151.8 126.274 151.245 126.53C150.691 126.828 150.264 126.978 149.965 126.978ZM133.837 85.0575C136.739 84.4175 139.576 83.2655 142.349 81.6015C145.123 79.8949 147.619 77.8469 149.837 75.4575C152.056 73.0255 153.827 70.4015 155.149 67.5855C156.472 64.7269 157.133 61.8255 157.133 58.8815C157.133 58.1562 156.941 57.5589 156.557 57.0895C156.173 56.6202 155.619 56.3855 154.893 56.3855C153.912 56.3855 152.653 56.9402 151.117 58.0495C149.581 59.1162 147.832 60.9295 145.869 63.4895C143.907 66.0069 141.795 69.4842 139.533 73.9215C139.533 73.9215 139.235 74.4762 138.637 75.5855C138.083 76.6949 137.357 78.1029 136.461 79.8095C135.608 81.4735 134.733 83.2229 133.837 85.0575ZM105.101 113.282C106.04 113.282 107.043 113.154 108.109 112.898C109.219 112.642 110.371 112.236 111.565 111.682C115.149 109.932 118.456 106.903 121.485 102.594C120.504 102.38 119.48 102.231 118.413 102.146C117.347 102.018 116.259 101.954 115.149 101.954C113.997 101.954 112.803 102.018 111.565 102.146C110.371 102.274 109.197 102.508 108.045 102.85C105.187 103.618 102.989 104.599 101.453 105.794C99.96 106.988 99.2134 108.204 99.2134 109.442C99.2134 110.508 99.7467 111.404 100.813 112.13C101.88 112.898 103.309 113.282 105.101 113.282Z" fill="#DFDFDF"/>
</svg>
